<svg viewBox="0 0 110 30" xmlns="http://www.w3.org/2000/svg" fill-rule="evenodd" clip-rule="evenodd" stroke-linejoin="round" stroke-miterlimit="1.414"><g fill="#3f465e"><path d="M92.83 15.297l-7.66-13.28h4.776l5.316 9.424 5.586-9.42h4.81L97.64 15.3l8.416 14.54h-4.704L95.19 19.19l-6.343 10.65H84.09l8.74-14.543zM72.838 23.08h-11.91l-3.1 6.76h-4.523L67.072.27l13.28 29.57h-4.595l-2.92-6.76zm-1.712-3.945L67 9.675l-4.325 9.46h8.45zm-36 10.705V2.016h4.18c1.86 0 3.345.144 4.45.432 1.117.287 2.06.774 2.83 1.46.78.707 1.4 1.59 1.855 2.648.47 1.07.71 2.15.71 3.243 0 1.99-.76 3.68-2.29 5.06 1.48.5 2.65 1.39 3.5 2.65.87 1.25 1.3 2.7 1.3 4.36 0 2.17-.77 4.01-2.304 5.51-.925.92-1.964 1.57-3.12 1.93-1.26.35-2.84.52-4.74.52h-6.36zm4.197-15.876h1.315c1.562 0 2.706-.346 3.433-1.037.73-.69 1.09-1.708 1.09-3.054 0-1.31-.37-2.303-1.11-2.982-.74-.67-1.82-1.01-3.24-1.01h-1.48v8.09zm0 11.928h2.595c1.898 0 3.29-.372 4.18-1.117.937-.805 1.406-1.826 1.406-3.063 0-1.2-.45-2.21-1.352-3.027-.877-.805-2.444-1.208-4.703-1.208h-2.13v8.415z" fill-rule="nonzero"/><path d="M17.767.16l13.825 29.544h-4.376L17.768 9.442 8.32 29.704H3.944L17.767.16zm0 17.945l3.543 7.085h-7.084l3.542-7.085z"/></g></svg>